<?xml version="1.0" encoding="UTF-8" standalone="no"?>
<!-- Created with Inkscape (http://www.inkscape.org/) -->

<svg
   width="30.48mm"
   height="128.5mm"
   viewBox="0 0 30.48 128.5"
   version="1.1"
   id="svg1"
   xml:space="preserve"
   inkscape:version="1.3 (0e150ed6c4, 2023-07-21)"
   sodipodi:docname="simplesine.svg"
   xmlns:inkscape="http://www.inkscape.org/namespaces/inkscape"
   xmlns:sodipodi="http://sodipodi.sourceforge.net/DTD/sodipodi-0.dtd"
   xmlns="http://www.w3.org/2000/svg"
   xmlns:svg="http://www.w3.org/2000/svg"><sodipodi:namedview
     id="namedview1"
     pagecolor="#000000"
     bordercolor="#000000"
     borderopacity="0.25"
     inkscape:showpageshadow="2"
     inkscape:pageopacity="0.0"
     inkscape:pagecheckerboard="0"
     inkscape:deskcolor="#d1d1d1"
     inkscape:document-units="mm"
     inkscape:zoom="1.0242632"
     inkscape:cx="-207.46621"
     inkscape:cy="262.13965"
     inkscape:window-width="1920"
     inkscape:window-height="1009"
     inkscape:window-x="-8"
     inkscape:window-y="-8"
     inkscape:window-maximized="1"
     inkscape:current-layer="layer1"
     showgrid="false" /><defs
     id="defs1"><inkscape:perspective
       sodipodi:type="inkscape:persp3d"
       inkscape:vp_x="4.0184503 : 68.26845 : 1"
       inkscape:vp_y="0 : 1000 : 0"
       inkscape:vp_z="70.299189 : 78.862546 : 1"
       inkscape:persp3d-origin="15.24 : 42.833333 : 1"
       id="perspective6" /></defs><g
     inkscape:label="Layer 1"
     inkscape:groupmode="layer"
     id="layer1"><rect
       style="font-variation-settings:'wght' 700;fill:#000000;fill-opacity:1;stroke-width:0.223627"
       id="rect23"
       width="30.48"
       height="128.5"
       x="-1.7763568e-15"
       y="0"
       inkscape:label="Background" /><path
       sodipodi:type="star"
       style="fill:#ffffff;stroke-width:0.264583"
       id="path1"
       inkscape:flatsided="false"
       sodipodi:sides="4"
       sodipodi:cx="11.324723"
       sodipodi:cy="36.531364"
       sodipodi:r1="6.5984383"
       sodipodi:r2="2.6393752"
       sodipodi:arg1="0.84415399"
       sodipodi:arg2="1.6295521"
       inkscape:rounded="0.2"
       inkscape:randomized="0"
       d="m 15.708487,41.463099 c -0.760393,0.675904 -3.523138,-2.237172 -4.538753,-2.296914 -1.015615,-0.05974 -4.1008405,2.509336 -4.776745,1.748943 -0.6759045,-0.760392 2.2371715,-3.523138 2.2969136,-4.538753 0.059742,-1.015615 -2.5093357,-4.10084 -1.7489431,-4.776745 0.7603925,-0.675904 3.5231375,2.237172 4.5387535,2.296914 1.015615,0.05974 4.10084,-2.509336 4.776745,-1.748943 0.675904,0.760392 -2.237172,3.523137 -2.296914,4.538753 -0.05974,1.015615 2.509336,4.10084 1.748943,4.776745 z"
       transform="matrix(1.0630213,-0.06893435,0.06893435,1.0630213,0.70919903,2.7229308)"
       inkscape:label="lightshape" /><circle
       style="fill:#ffffff;stroke-width:0.235293"
       id="path2"
       cx="15.24"
       cy="59"
       r="8"
       inkscape:label="pitchshape" /><g
       id="text4"
       style="font-size:6.17176px;font-family:Monospace;-inkscape-font-specification:'Monospace, Normal';fill:#ffffff;stroke-width:0.330629"
       inkscape:label="simplesine"
       transform="matrix(0.86346179,-0.50328924,0.5021342,0.86544797,0,0)"
       aria-label="Simple&#10;Sine"><path
         style="font-family:Liham;-inkscape-font-specification:'Liham, Normal';text-align:center;text-anchor:middle"
         d="m -9.895595,22.818971 c -0.098748,-0.03703 -0.117263,-0.09258 -0.117263,-0.191324 0.0062,-0.154294 -0.03703,-0.376478 -0.135779,-0.580146 -0.148122,-0.290072 -0.45671,-0.469053 -0.777642,-0.469053 h -5.628645 c -0.253042,0.01234 -0.512256,-0.03086 -0.765298,0.06789 -0.135779,0.05555 -0.246871,0.148122 -0.308588,0.283901 -0.07406,0.172809 -0.09875,0.407336 -0.06172,0.592489 0.0432,0.228355 0.08023,0.35179 0.259214,0.506084 0.135779,0.111092 0.283901,0.191325 0.444367,0.253042 1.518253,0.592489 4.739911,1.055371 5.659504,1.493566 0.191324,0.09875 0.376477,0.20984 0.506084,0.394993 0.05555,0.08641 0.02469,0.185153 -0.08023,0.20984 -0.10492,0.03086 -5.566927,0.03703 -5.776767,0.01852 -0.197497,-0.01234 -0.320932,-0.0864 -0.370306,-0.265386 -0.03703,-0.154294 -0.03086,-0.234527 0.0864,-0.290072 0.03086,-0.01234 0.09258,-0.03703 0.08023,-0.08023 -0.0062,-0.03703 -0.08023,-0.03086 -0.111092,-0.03703 h -0.851703 c -0.04937,0.0062 -0.06789,0.01852 -0.06789,0.0432 0,0.04937 0.0864,0.06172 0.14195,0.123435 0.05555,0.05555 0.01234,0.419679 0.10492,0.629519 0.148122,0.327104 0.512256,0.555459 1.005997,0.555459 0.197496,-0.0062 5.511382,-0.0062 5.980435,0 0.08023,0 0.160466,-0.01852 0.234527,-0.03703 0.253043,-0.06789 0.425852,-0.20984 0.4567106,-0.481397 0.037031,-0.290073 0.00617,-0.580146 -0.1542936,-0.83936 -0.02469,-0.0432 -0.05555,-0.08023 -0.08641,-0.117263 -0.09258,-0.10492 -0.197496,-0.197496 -0.31476,-0.277729 -0.617176,-0.450539 -3.536418,-0.913421 -5.64716,-1.518253 -0.401165,-0.117264 -0.66655,-0.271558 -0.672722,-0.41968 -0.0062,-0.05555 0.03703,-0.09875 0.0864,-0.111092 0.111091,-0.03086 0.228355,-0.03086 0.339446,-0.03086 0.462882,0.0062 5.054672,0.0062 5.406462,0.0062 0.197496,0.01852 0.308588,0.0864 0.370306,0.271558 0.04937,0.123435 0.01234,0.24687 -0.08023,0.290073 -0.03086,0.01234 -0.07406,0.01234 -0.06172,0.05555 0.0062,0.0432 0.03703,0.0432 0.08023,0.0432 0.172809,0 0.697409,0 0.802329,0 0.037031,0 0.055546,-0.01234 0.061718,-0.03703 0.012344,-0.03086 -0.00617,-0.0432 -0.037031,-0.05555 z m 1.9934775,-1.154119 c 0.049374,-0.01234 0.067889,-0.06789 -0.00617,-0.06789 h -1.0430274 c -0.067889,0 -0.074061,0.04937 -0.00617,0.07406 0.1234352,0.05555 0.1357788,0.129607 0.1419505,0.234527 l -0.00617,1.913245 v 0.01852 c 0,0.851703 0,1.678719 0,1.758951 0.00617,0.154294 0.037031,0.351791 -0.1728093,0.401165 -0.055546,0.01234 -0.067889,0.06789 0,0.06789 h 1.0430274 c 0.067889,0 0.074061,-0.04937 0.012344,-0.07406 -0.1296069,-0.05555 -0.1357787,-0.135779 -0.1419504,-0.240699 v -1.913245 -0.01852 c 0,-0.845531 0,-1.678718 0,-1.758951 0,-0.148122 -0.030859,-0.345619 0.178981,-0.394993 z m 8.9120169,0.03703 c 0.092576,-0.03086 0.080233,-0.09258 0.030859,-0.09258 -0.024687,0 -0.96279454,0 -1.0615427,0 -0.04937409,0 -0.06171761,0.06789 0,0.08023 0.16663752,0.0432 0.14812224,0.166638 0.08023288,0.222184 -1.01834042,1.005997 -1.62934468,2.684715 -1.75895158,2.845181 -0.067889,0.08641 -0.1110917,0.09258 -0.1728093,0 -0.10492,-0.154294 -1.8947304,-2.660029 -4.116564,-2.962445 -0.018515,-0.0062 -0.055546,0 -0.055546,-0.02469 -0.00617,-0.02469 0.074061,-0.08023 0.1172634,-0.09875 0.055546,-0.01852 0.049374,-0.06172 0,-0.06172 -0.055546,0 -0.7591265,0 -1.0430275,0 -0.024687,0 -0.061718,0.0432 0,0.07406 0.080233,0.0432 0.129607,0.10492 0.1419505,0.191325 0.024687,0.178981 0.018515,3.598136 0.012344,3.777117 0,0.154294 -0.012344,0.283901 -0.1666375,0.351791 -0.018515,0.01234 -0.061718,0.02469 -0.049374,0.06172 0.012344,0.03086 0.012344,0.03703 0.043202,0.03703 0.1110916,-0.0062 0.8146723,0 1.0306839,0 0.074061,0 0.055546,-0.06172 0.012344,-0.08023 -0.086405,-0.03086 -0.1666375,-0.172809 -0.1728093,-0.283901 -0.00617,-0.185153 0.024687,-2.697059 0.030859,-2.906899 0,-0.111092 0.061718,-0.166638 0.1728093,-0.141951 1.5305965,0.01852 3.215487,2.326754 3.6351667,3.166113 0.043202,0.0864 0.049374,0.246871 0.308588,0.246871 0.1974963,0 0.2406987,0 0.438195,0 0.154294,0 0.1728093,-0.123435 0.2160116,-0.265386 0.178981,-0.654207 1.05537095,-2.283551 1.21583671,-2.511906 0.04320232,-0.06789 0.09874817,-0.135779 0.15429401,-0.197497 0.01234352,-0.01852 0.04320232,-0.03703 0.07406112,-0.02469 0.024687,0.01852 0.0123435,0.0432 0.0185153,0.06172 0.006172,0.03703 0.006172,2.413158 0.006172,2.548937 0,0.14195 0.0185153,0.253042 -0.16663752,0.302416 -0.07406113,0.01234 -0.06788937,0.0864 -0.01851529,0.0864 0.02468705,0 0.96896634,0 1.05537093,0 0.043202,0 0.055546,-0.06789 0,-0.08023 -0.14812219,-0.03703 -0.14812219,-0.117264 -0.15429395,-0.253042 0,-0.185153 0,-3.647511 0.006172,-3.845007 0,-0.09258 0.0308588,-0.185153 0.13577869,-0.222183 z M 8.9035866,21.83149 C 8.7554643,21.633993 8.557968,21.547589 8.3296129,21.541417 H 2.1763681 c -0.1851528,0 -0.3271033,0 -0.4937408,0 -0.018515,0 -0.043202,0.0062 -0.043202,0.03086 -0.00617,0.03086 0.018515,0.03086 0.030859,0.03703 0.1110917,0.04937 0.1604657,0.148123 0.1728093,0.271558 0.00617,0.123435 0,3.820319 0,3.820319 0,0.129607 -0.018515,0.240699 -0.1604658,0.296245 -0.074061,0.03086 -0.049374,0.08023 0.012344,0.07406 0.2036681,-0.0062 0.9072487,0 1.0368557,0 0.067889,0 0.049374,-0.05555 0,-0.06789 -0.1172634,-0.04937 -0.1913246,-0.135779 -0.178981,-0.265386 0.00617,-0.302416 0,-0.975138 0.012344,-1.222009 0.00617,-0.172809 0.086405,-0.240698 0.2592139,-0.228355 0.055546,0 2.573624,0.0062 3.0673648,-0.03086 0.7899853,-0.05554 1.2034932,-0.08023 1.8144974,-0.419679 0.6603784,-0.407336 1.2960697,-0.87639 1.2960697,-1.617001 -0.012344,-0.135779 -0.018515,-0.271558 -0.098748,-0.388821 z m -0.8517029,0.845531 c -0.333275,0.475225 -0.901077,0.672722 -1.0738863,0.728268 -0.925764,0.345618 -3.8943806,0.129607 -4.1350792,0.111091 -0.086405,-0.0062 -0.154294,-0.03086 -0.2160116,-0.0864 -0.061718,-0.05555 -0.055546,-0.111092 -0.055546,-0.160466 0,-0.05555 0,-0.73444 0.00617,-0.833188 0.00617,-0.09258 0.080233,-0.172809 0.1851528,-0.178981 0.2283551,-0.02469 0.4567103,-0.0062 0.6850654,-0.0062 0.9134205,-0.02469 1.826841,-0.0062 2.7402615,-0.01234 0.4381949,-0.0062 0.8825616,0 1.3207566,0 0.1481223,0 0.2962445,-0.01234 0.4443667,0 0.00617,0 0.012344,0 0.018515,0 0.080233,0.01234 0.1604658,0.0062 0.2036681,0.09875 0.043202,0.09258 -0.080233,0.283901 -0.1234352,0.339447 z m 8.7083543,2.530422 c 0,-0.02469 0,-0.06172 -0.02469,-0.06789 -0.03086,-0.0062 -0.03086,0.03086 -0.0432,0.05555 -0.04937,0.09258 -0.117263,0.160466 -0.234527,0.160466 -0.296244,0 -5.50521,0.0432 -5.850828,0.0432 0,0 0,0 -0.0062,0 -0.08023,0 -0.141951,-0.06789 -0.141951,-0.148122 v -0.129607 -1.104745 -1.567627 c 0,-0.203668 0,-0.333275 0,-0.364134 0,-0.135779 -0.02469,-0.296245 0.111092,-0.370306 0.01852,-0.01234 0.03703,-0.01852 0.06789,-0.02469 0.04937,-0.01852 0.06789,-0.06789 -0.0062,-0.06789 H 9.5886531 c -0.067889,0 -0.074061,0.04937 -0.00617,0.07406 0.018515,0.0062 0.037031,0.01852 0.049374,0.02469 0.080233,0.05555 0.086405,0.123435 0.092576,0.20984 v 0.512256 l -0.00617,1.40099 v 0.851702 c 0,0.493741 0,0.87639 0,0.925764 0.00617,0.154294 0.037031,0.351791 -0.1728093,0.401165 -0.055546,0.01234 -0.067889,0.06172 0,0.06172 h 0.086405 0.9689666 v 0 h 6.079183 c 0.0432,-0.0062 0.08023,-0.02469 0.08023,-0.06172 0,-0.0432 -0.0062,-0.611004 0,-0.814672 z m 8.442973,-0.07406 c 0,-0.03703 -0.05555,-0.03703 -0.05555,0.0062 -0.02469,0.191325 -0.160465,0.222184 -0.314759,0.222184 -0.191325,0 -0.901077,0 -1.382475,0 v 0.0062 h -1.777467 c -0.759126,0 -2.437845,0 -3.29572,0 -0.08023,0 -0.148122,-0.06789 -0.148122,-0.148122 0,-0.123435 0,-0.265386 0,-0.41968 v -0.265385 c 0,-0.08023 0.06789,-0.148123 0.148122,-0.148123 0.388821,0 0.740612,0 0.993654,0 h 1.777467 v 0.0062 c 0.487569,0 1.191149,0 1.382474,0 0.154294,0 0.290073,0.03086 0.31476,0.222184 0.0062,0.0432 0.05555,0.0432 0.05555,0.0062 0,-0.0432 0,-0.178981 0,-0.327103 v -0.01234 c 0,-0.06172 0,-0.154294 0,-0.259213 0,-0.10492 0,-0.203669 0,-0.259214 0,-0.0062 0,-0.0062 0,-0.01234 0,-0.154294 0,-0.283901 0,-0.327103 0,-0.03703 -0.04937,-0.03703 -0.05555,0 -0.02469,0.197496 -0.160466,0.222183 -0.31476,0.228355 -0.191325,0 -0.894905,0 -1.382474,0 v 0 h -1.777467 c -0.253042,0 -0.604833,0 -0.993654,0 -0.08023,0 -0.148122,-0.06172 -0.148122,-0.141951 0,-0.382649 0,-0.734439 0,-0.999825 0,-0.08023 0.06789,-0.14195 0.148122,-0.14195 0.857875,0 2.530422,-0.0062 3.283377,0 h 1.777467 v 0.0062 c 0.487569,-0.0062 1.197321,-0.0062 1.388646,0 0.154294,0 0.283901,0.02469 0.31476,0.222183 0,0.0432 0.05554,0.03703 0.05554,0 0,-0.09258 -0.0062,-0.672722 -0.0062,-0.864046 0,-0.07406 -0.01852,-0.09875 -0.09258,-0.09875 -0.166637,0 -4.789286,0 -6.671672,0 v 0 c -0.0062,0 -0.01234,0 -0.02469,0 h -1.043028 c -0.06789,0 -0.07406,0.04937 -0.0062,0.07406 0.123436,0.05554 0.135779,0.129606 0.135779,0.234526 v 1.709578 0.734439 c 0,0.648035 0,1.184978 0,1.246696 0.0062,0.154294 0.03703,0.35179 -0.172809,0.401164 -0.05555,0.01234 -0.06789,0.06789 0,0.06789 h 1.092401 c 0.01234,0 0.01852,-0.0062 0.02469,-0.0062 v 0 c 1.882387,0 6.505035,0 6.671673,0.0062 0.07406,0 0.09875,-0.03086 0.09875,-0.09875 -0.0062,-0.191325 0,-0.77147 0,-0.870219 z"
         id="path14" /><path
         style="font-family:Liham;-inkscape-font-specification:'Liham, Normal';text-align:center;text-anchor:middle"
         d="m -1.4649637,30.807591 c -0.098748,-0.03703 -0.1172635,-0.09258 -0.1172635,-0.191325 0.00617,-0.154294 -0.03703,-0.376477 -0.1357787,-0.580145 -0.1481223,-0.290073 -0.4567103,-0.469054 -0.7776418,-0.469054 h -5.6286452 c -0.2530421,0.01234 -0.5122561,-0.03086 -0.7652982,0.06789 -0.1357787,0.05554 -0.2468704,0.148122 -0.308588,0.283901 -0.074061,0.172809 -0.098748,0.407336 -0.061718,0.592489 0.043202,0.228355 0.080233,0.35179 0.2592139,0.506084 0.1357787,0.111092 0.283901,0.191324 0.4443667,0.253042 1.518253,0.592489 4.7399118,1.055371 5.659504,1.493566 0.1913246,0.09875 0.3764774,0.20984 0.5060843,0.394993 0.055546,0.0864 0.024687,0.185152 -0.080233,0.209839 -0.10492,0.03086 -5.5669276,0.03703 -5.7767675,0.01852 -0.1974963,-0.01234 -0.3209315,-0.0864 -0.3703056,-0.265386 -0.037031,-0.154294 -0.030859,-0.234527 0.086405,-0.290073 0.030859,-0.01234 0.092576,-0.03703 0.080233,-0.08023 -0.00617,-0.03703 -0.080233,-0.03086 -0.1110916,-0.03703 h -0.8517029 c -0.049374,0.0062 -0.067889,0.01852 -0.067889,0.0432 0,0.04937 0.086405,0.06172 0.1419505,0.123435 0.055546,0.05555 0.012343,0.41968 0.1049199,0.62952 0.1481223,0.327103 0.5122561,0.555458 1.0059969,0.555458 0.1974963,-0.0062 5.5113818,-0.0062 5.9804355,0 0.080233,0 0.1604658,-0.01852 0.2345269,-0.03703 0.2530422,-0.06789 0.4258515,-0.20984 0.4567103,-0.481398 0.03703,-0.290072 0.00617,-0.580145 -0.1542941,-0.839359 -0.024687,-0.0432 -0.055546,-0.08023 -0.086405,-0.117263 -0.092576,-0.10492 -0.1974963,-0.197497 -0.3147598,-0.27773 -0.617176,-0.450538 -3.5364185,-0.91342 -5.6471604,-1.518253 -0.4011644,-0.117263 -0.6665501,-0.271557 -0.6727219,-0.419679 -0.00617,-0.05555 0.037031,-0.09875 0.086405,-0.111092 0.1110916,-0.03086 0.2283551,-0.03086 0.3394468,-0.03086 0.462882,0.0062 5.0546715,0.0062 5.4064618,0.0062 0.1974963,0.01852 0.308588,0.08641 0.3703056,0.271558 0.049374,0.123435 0.012344,0.24687 -0.080233,0.290072 -0.030859,0.01234 -0.074061,0.01234 -0.061718,0.05555 0.00617,0.0432 0.037031,0.0432 0.080233,0.0432 0.1728093,0 0.6974089,0 0.8023288,0 0.037031,0 0.055546,-0.01234 0.061718,-0.03703 0.012344,-0.03086 -0.00617,-0.0432 -0.03703,-0.05555 z m 1.99347745,-1.154119 c 0.0493741,-0.01234 0.0678894,-0.06789 -0.006172,-0.06789 h -1.04302746 c -0.0678894,0 -0.0740611,0.04937 -0.006172,0.07406 0.1234352,0.05554 0.13577872,0.129607 0.14195048,0.234527 l -0.006172,1.913245 v 0.01852 c 0,0.851703 0,1.678719 0,1.758952 0.006172,0.154294 0.0370306,0.35179 -0.17280928,0.401164 -0.0555458,0.01234 -0.0678894,0.06789 0,0.06789 h 1.04302746 c 0.0678894,0 0.0740611,-0.04937 0.0123435,-0.07406 C 0.36187622,33.92433 0.35570446,33.844097 0.3495327,33.739177 v -1.913246 -0.01852 c 0,-0.845531 0,-1.678719 0,-1.758951 0,-0.148123 -0.0308588,-0.345619 0.17898105,-0.394993 z m 7.72703895,0.01234 c 0.092576,-0.03086 0.080233,-0.09258 0.030859,-0.09258 H 7.2248688 c -0.049374,0 -0.061718,0.06789 0,0.0864 0.1666375,0.03703 0.129607,0.123435 0.129607,0.271557 l 0.024687,2.493391 c 0.00617,0.09875 -0.1110917,0.148122 -0.1851528,0.08641 -0.8702182,-0.783814 -2.9933036,-2.481048 -4.7522553,-2.715575 -0.055546,-0.0062 -0.1172634,-0.01851 -0.1172634,-0.05554 -0.00617,-0.05555 0.074061,-0.0864 0.1172634,-0.09875 0.055546,-0.01851 0.049374,-0.06789 0,-0.06789 H 1.3987273 c -0.024687,0 -0.061718,0.04937 0,0.07406 0.080233,0.0432 0.1296069,0.10492 0.1419505,0.191325 0.024687,0.178981 0.018515,3.598136 0.012343,3.783289 0,0.154294 -0.012343,0.277729 -0.1666375,0.35179 -0.018515,0.0062 -0.061718,0.01852 -0.049374,0.05555 0.012343,0.03086 0.012343,0.03703 0.043202,0.03703 0.1110917,-0.0062 0.8146723,0 1.0306839,0 0.074061,0 0.055546,-0.06172 0.012344,-0.07406 -0.086405,-0.03703 -0.1666376,-0.172809 -0.1728093,-0.290073 -0.00617,-0.178981 0.024687,-2.690887 0.024687,-2.900727 0.00617,-0.117263 0.067889,-0.166637 0.1789811,-0.148122 1.4380201,0.01852 4.1782815,2.184803 4.8571751,3.147598 0.043202,0.06172 0.012344,0.154294 -0.061718,0.172809 -0.00617,0.0062 -0.012344,0.0062 -0.018515,0.0062 -0.074061,0.01852 -0.067889,0.0864 -0.018515,0.0864 h 1.055371 c 0.043202,0 0.055546,-0.06789 0,-0.08023 -0.1481223,-0.03086 -0.1481223,-0.117263 -0.154294,-0.253042 0,-0.178981 0.00617,-3.641338 0.00617,-3.838834 0,-0.09258 0.030859,-0.191325 0.1357787,-0.228356 z m 8.5170243,3.456186 c 0,-0.03703 -0.05555,-0.03703 -0.05555,0.0062 -0.02469,0.191324 -0.160465,0.222183 -0.314759,0.222183 -0.191325,0 -0.901077,0 -1.382475,0 v 0.0062 H 13.24233 c -0.759126,0 -2.437845,0 -3.2957195,0 -0.080233,0 -0.1481222,-0.06789 -0.1481222,-0.148122 0,-0.123436 0,-0.265386 0,-0.41968 V 32.52334 c 0,-0.08023 0.067889,-0.148122 0.1481222,-0.148122 0.3888205,0 0.7406115,0 0.9936535,0 h 1.777467 v 0.0062 c 0.487569,0 1.19115,0 1.382474,0 0.154294,0 0.290073,0.03086 0.31476,0.222183 0.0062,0.0432 0.05555,0.0432 0.05555,0.0062 0,-0.0432 0,-0.178981 0,-0.327103 v -0.01234 c 0,-0.06172 0,-0.154294 0,-0.259214 0,-0.10492 0,-0.203668 0,-0.259214 0,-0.0062 0,-0.0062 0,-0.01234 0,-0.154294 0,-0.283901 0,-0.327103 0,-0.03703 -0.04937,-0.03703 -0.05555,0 -0.02469,0.197496 -0.160466,0.222183 -0.31476,0.228355 -0.191324,0 -0.894905,0 -1.382474,0 v 0 h -1.777467 c -0.253042,0 -0.604833,0 -0.9936535,0 -0.080233,0 -0.1481222,-0.06172 -0.1481222,-0.141951 0,-0.382649 0,-0.734439 0,-0.999825 0,-0.08023 0.067889,-0.14195 0.1481222,-0.14195 0.8578745,0 2.5304215,-0.0062 3.2833765,0 h 1.777467 v 0.0062 c 0.487569,-0.0062 1.197321,-0.0062 1.388646,0 0.154294,0 0.283901,0.02469 0.31476,0.222184 0,0.0432 0.05554,0.03703 0.05554,0 0,-0.09258 -0.0062,-0.672722 -0.0062,-0.864047 0,-0.07406 -0.01852,-0.09875 -0.09258,-0.09875 -0.166637,0 -4.789286,0 -6.6716724,0 v 0 c -0.00617,0 -0.012344,0 -0.024687,0 H 8.9282701 c -0.067889,0 -0.074061,0.04937 -0.00617,0.07406 0.1234352,0.05555 0.1357787,0.129607 0.1357787,0.234527 v 1.709578 0.734439 c 0,0.648035 0,1.184978 0,1.246696 0.00617,0.154294 0.037031,0.35179 -0.1728093,0.401164 -0.055546,0.01234 -0.067889,0.06789 0,0.06789 h 1.0924015 c 0.012344,0 0.018515,-0.0062 0.024687,-0.0062 v 0 c 1.882387,0 6.505036,0 6.671673,0.0062 0.07406,0 0.09875,-0.03086 0.09875,-0.09875 -0.0062,-0.191324 0,-0.77147 0,-0.870218 z"
         id="path15" /></g><path
       style="font-size:4.39243px;font-family:'League Spartan';-inkscape-font-specification:'League Spartan, @wght=700';font-variation-settings:'wght' 700;text-align:center;text-anchor:middle;fill:#ffffff;stroke-width:0.235307"
       d="M 11.650417,74 H 10.999996 V 71.238837 H 11.6569 v 0.267858 q 0.03026,-0.0625 0.114525,-0.136161 0.08644,-0.07589 0.218247,-0.129465 0.133974,-0.0558 0.302521,-0.0558 0.259304,0 0.442977,0.131696 0.185834,0.131697 0.285234,0.352679 0.0994,0.21875 0.0994,0.486607 0,0.267858 -0.105882,0.48884 -0.105883,0.21875 -0.2982,0.350447 -0.190156,0.129464 -0.44946,0.129464 -0.185833,0 -0.317646,-0.06697 -0.129652,-0.06919 -0.205282,-0.151786 -0.07347,-0.08483 -0.09292,-0.131696 z m 0.82761,-1.843752 q 0,-0.125 -0.05402,-0.223214 -0.05403,-0.100447 -0.146939,-0.15625 -0.09076,-0.05803 -0.205282,-0.05803 -0.118848,0 -0.213925,0.05803 -0.09292,0.0558 -0.146939,0.15625 -0.05402,0.09821 -0.05402,0.223214 0,0.125 0.05402,0.225447 0.05402,0.09821 0.146939,0.154018 0.09507,0.0558 0.213925,0.0558 0.114525,0 0.205282,-0.0558 0.09292,-0.05581 0.146939,-0.154018 0.05402,-0.100447 0.05402,-0.225447 z m 0.993997,0.915179 v -1.83259 h 0.656902 v 1.83259 z m 0.337095,-2.209822 q -0.155582,0 -0.263626,-0.111608 -0.108042,-0.113839 -0.108042,-0.270089 0,-0.15625 0.108042,-0.27009 0.110204,-0.116071 0.263626,-0.116071 0.101561,0 0.185834,0.05357 0.08427,0.05134 0.136134,0.138393 0.05186,0.08705 0.05186,0.194197 0,0.15625 -0.110204,0.270089 -0.110204,0.111608 -0.263626,0.111607 z m 0.622324,0.377232 h 0.302522 v -0.752232 h 0.650419 v 0.752232 h 0.3976 v 0.558036 h -0.3976 v 0.511161 q 0,0.11384 0.03241,0.185269 0.03241,0.06919 0.118848,0.06919 0.05835,0 0.0994,-0.02678 0.04106,-0.02679 0.0497,-0.03571 l 0.224729,0.482144 q -0.01512,0.0134 -0.09507,0.04911 -0.07779,0.03571 -0.198799,0.06473 -0.121009,0.02902 -0.270108,0.02902 -0.265786,0 -0.438655,-0.154017 -0.172869,-0.15625 -0.172869,-0.479912 v -0.694202 h -0.302519 z m 2.683796,1.35268 q 0.123169,0 0.203121,-0.04241 0.07995,-0.04464 0.108043,-0.07143 l 0.300359,0.459822 q -0.03457,0.02902 -0.118846,0.07589 -0.08427,0.04464 -0.211765,0.07813 -0.125331,0.03348 -0.287395,0.03348 -0.304682,0 -0.535894,-0.118304 -0.231212,-0.120536 -0.360864,-0.339286 -0.127492,-0.21875 -0.127492,-0.513393 0,-0.296876 0.127492,-0.513393 0.129652,-0.216518 0.360864,-0.334822 0.231212,-0.120535 0.535894,-0.120535 0.159904,0 0.285233,0.03571 0.127492,0.03348 0.213927,0.07813 0.08644,0.04241 0.121008,0.07367 l -0.306843,0.464285 q -0.01512,-0.01562 -0.05618,-0.04464 -0.03889,-0.02902 -0.101561,-0.05134 -0.06266,-0.02232 -0.149099,-0.02232 -0.105883,0 -0.1988,0.0558 -0.09076,0.05581 -0.146939,0.154018 -0.05618,0.09821 -0.05618,0.225447 0,0.127232 0.05618,0.227679 0.05618,0.09821 0.146939,0.154018 0.09292,0.0558 0.1988,0.0558 z m 2.115488,-1.406251 q 0.185833,0 0.363025,0.07813 0.17719,0.07813 0.291716,0.247769 0.114526,0.16741 0.114526,0.441965 v 1.118303 h -0.656903 v -1.006697 q 0,-0.196429 -0.08644,-0.294643 -0.08427,-0.100446 -0.231212,-0.100446 -0.09724,0 -0.185834,0.05357 -0.08859,0.05134 -0.144778,0.147321 -0.05402,0.09375 -0.05402,0.216518 V 73.07143 H 17.981751 V 70 h 0.659064 v 1.50893 q 0.02377,-0.07366 0.105881,-0.147322 0.08427,-0.07589 0.209604,-0.125 0.127492,-0.05134 0.274431,-0.05134 z"
       id="text1"
       inkscape:label="pitch"
       aria-label="pitch" /><path
       d="m 10.624804,86.554951 -0.461205,0.241584 V 86.17281 l 0.808207,-0.450224 h 0.309667 v 2.899004 h -0.656669 z m 0.946566,0.263546 h 0.71377 l 0.434851,1.196937 0.437046,-1.196937 h 0.709378 l -0.755498,1.803093 h -0.781853 z m 3.893893,-1.218899 h 0.527092 l -1.447306,3.443665 h -0.527091 z m 1.767955,3.074701 q -0.296489,0 -0.527092,-0.120792 -0.228406,-0.122988 -0.360179,-0.336021 -0.129577,-0.215229 -0.129577,-0.491952 0,-0.276723 0.129577,-0.491952 0.131773,-0.217425 0.360179,-0.34261 0.230603,-0.125184 0.527092,-0.125184 0.296489,0 0.522699,0.125184 0.22621,0.125185 0.353591,0.34261 0.12738,0.215229 0.12738,0.491952 0,0.276723 -0.12738,0.491952 -0.127381,0.213033 -0.353591,0.336021 -0.22621,0.120792 -0.522699,0.120792 z m 0,-0.549054 q 0.114203,0 0.197659,-0.05051 0.08346,-0.05051 0.129577,-0.142754 0.04612,-0.09224 0.04612,-0.20864 0,-0.118596 -0.04612,-0.210837 -0.04612,-0.09224 -0.129577,-0.14495 -0.08346,-0.05271 -0.197659,-0.05271 -0.114203,0 -0.199856,0.05271 -0.08346,0.05271 -0.131773,0.14495 -0.04612,0.09224 -0.04612,0.210837 0,0.116399 0.04612,0.20864 0.04832,0.09224 0.131773,0.142754 0.08565,0.05051 0.199856,0.05051 z m 2.32799,0.02416 q 0.125184,0 0.206444,-0.04173 0.08126,-0.04392 0.109811,-0.07028 l 0.305273,0.452421 q -0.03514,0.02855 -0.120791,0.07467 -0.08565,0.04392 -0.215229,0.07687 -0.127381,0.03294 -0.292097,0.03294 -0.309666,0 -0.544661,-0.1164 -0.234995,-0.118595 -0.366768,-0.333824 -0.129577,-0.215229 -0.129577,-0.50513 0,-0.292096 0.129577,-0.505129 0.131773,-0.213033 0.366768,-0.329432 0.234995,-0.118596 0.544661,-0.118596 0.16252,0 0.2899,0.03514 0.129577,0.03294 0.217426,0.07687 0.08785,0.04173 0.122988,0.07247 l -0.311863,0.456813 q -0.01537,-0.01537 -0.0571,-0.04392 -0.03953,-0.02855 -0.103223,-0.05051 -0.06369,-0.02196 -0.151538,-0.02196 -0.107615,0 -0.202052,0.05491 -0.09224,0.0549 -0.149343,0.151539 -0.0571,0.09663 -0.0571,0.221817 0,0.125185 0.0571,0.224014 0.0571,0.09663 0.149343,0.151539 0.09444,0.05491 0.202052,0.05491 z m 0.722558,-1.330906 h 0.30747 v -0.740124 h 0.661061 v 0.740124 H 21.6564 v 0.549054 h -0.404103 v 0.502933 q 0,0.112007 0.03294,0.182286 0.03294,0.06808 0.120792,0.06808 0.0593,0 0.101026,-0.02635 0.04173,-0.02635 0.05051,-0.03514 l 0.228406,0.474382 q -0.01537,0.01318 -0.09663,0.04832 -0.07906,0.03514 -0.202052,0.06369 -0.122988,0.02855 -0.274527,0.02855 -0.270135,0 -0.445832,-0.151539 -0.175697,-0.153735 -0.175697,-0.472186 v -0.683023 h -0.30747 z"
       id="text2"
       style="font-size:4.39243px;font-family:'League Spartan';-inkscape-font-specification:'League Spartan, @wght=700';font-variation-settings:'wght' 700;text-align:center;text-anchor:middle;fill:#ffffff;stroke-width:0.235307"
       inkscape:label="1voct"
       transform="scale(0.98390344,1.0163599)"
       aria-label="1v/oct" /><path
       d="m 12.590783,106.35162 q 0.177893,0 0.32504,0.0307 0.147146,0.0286 0.245976,0.0659 0.101026,0.0373 0.129576,0.0615 l -0.217425,0.39312 q -0.04173,-0.0307 -0.155931,-0.0791 -0.112007,-0.0483 -0.250369,-0.0483 -0.105418,0 -0.177893,0.0329 -0.07248,0.0307 -0.07248,0.0988 0,0.0681 0.07906,0.10981 0.08126,0.0395 0.232798,0.0703 0.131773,0.0264 0.267939,0.0835 0.136165,0.0571 0.22621,0.16911 0.09224,0.10981 0.09224,0.29429 0,0.18887 -0.08126,0.31186 -0.08126,0.12299 -0.215229,0.19107 -0.133969,0.0681 -0.289901,0.0944 -0.155931,0.0286 -0.303077,0.0286 -0.206445,0 -0.36018,-0.0373 -0.151538,-0.0373 -0.245976,-0.0857 -0.09444,-0.0483 -0.131773,-0.0769 l 0.215229,-0.43924 q 0.0571,0.0483 0.186679,0.10981 0.129576,0.0593 0.274527,0.0593 0.140557,0 0.217425,-0.0417 0.07687,-0.0417 0.07687,-0.10981 0,-0.0549 -0.03734,-0.0879 -0.03734,-0.0329 -0.105419,-0.0571 -0.06808,-0.0242 -0.164716,-0.0439 -0.08785,-0.0176 -0.186678,-0.0549 -0.09883,-0.0373 -0.186678,-0.10103 -0.08785,-0.0659 -0.142754,-0.16471 -0.05491,-0.0988 -0.05491,-0.23939 0,-0.18009 0.1164,-0.29868 0.116399,-0.1186 0.300881,-0.1779 0.184482,-0.0615 0.393123,-0.0615 z m 1.102501,1.8558 v -1.80309 h 0.667649 v 1.80309 z m 0.342609,-2.17425 q -0.158127,0 -0.267938,-0.10981 -0.10981,-0.11201 -0.10981,-0.26575 0,-0.15373 0.10981,-0.26574 0.112007,-0.1142 0.267938,-0.1142 0.103223,0 0.188875,0.0527 0.08565,0.0505 0.138361,0.13616 0.05271,0.0857 0.05271,0.19107 0,0.15374 -0.112007,0.26575 -0.112007,0.10981 -0.267939,0.10981 z m 2.027103,0.31845 q 0.188874,0 0.368964,0.0769 0.18009,0.0769 0.296489,0.24378 0.116399,0.16471 0.116399,0.43485 v 1.1003 h -0.669845 v -0.99049 q 0,-0.19327 -0.09224,-0.2899 -0.09224,-0.0988 -0.241584,-0.0988 -0.09883,0 -0.186678,0.0527 -0.08565,0.0505 -0.140558,0.14495 -0.05271,0.0922 -0.05271,0.21303 v 0.96853 h -0.667649 v -1.80309 h 0.667649 v 0.26574 q 0.02636,-0.0725 0.109811,-0.14495 0.08565,-0.0747 0.213033,-0.12299 0.129576,-0.0505 0.278919,-0.0505 z m 1.702066,1.09591 q 0.0066,0.0966 0.06149,0.1713 0.05491,0.0747 0.151539,0.1186 0.09883,0.0417 0.232798,0.0417 0.127381,0 0.228407,-0.0264 0.103222,-0.0263 0.177893,-0.0659 0.07687,-0.0395 0.118596,-0.0813 l 0.259153,0.41289 q -0.05491,0.0593 -0.155931,0.1164 -0.09883,0.0549 -0.26135,0.09 -0.16252,0.0351 -0.410692,0.0351 -0.298685,0 -0.531484,-0.11201 -0.232799,-0.112 -0.366768,-0.32943 -0.133969,-0.21742 -0.133969,-0.53148 0,-0.26355 0.114203,-0.47439 0.1164,-0.21303 0.336021,-0.33602 0.219622,-0.12518 0.529288,-0.12518 0.294293,0 0.509522,0.10761 0.217425,0.10762 0.333824,0.32065 0.118596,0.21084 0.118596,0.52709 0,0.0176 -0.0022,0.0703 0,0.0527 -0.0044,0.0703 z m 0.683023,-0.3492 q -0.0022,-0.0703 -0.03734,-0.13836 -0.03514,-0.0703 -0.105418,-0.1142 -0.07028,-0.0461 -0.18009,-0.0461 -0.109811,0 -0.186678,0.0439 -0.07467,0.0417 -0.114203,0.10981 -0.03953,0.0681 -0.04392,0.14495 z"
       id="text3"
       style="font-size:4.39243px;font-family:'League Spartan';-inkscape-font-specification:'League Spartan, @wght=700';font-variation-settings:'wght' 700;text-align:center;text-anchor:middle;fill:#ffffff;stroke-width:0.235307"
       inkscape:label="sine"
       transform="scale(0.98390344,1.0163599)"
       aria-label="sine" /><g
       id="text5"
       style="font-size:4.37406px;font-family:'League Spartan';-inkscape-font-specification:'League Spartan, @wght=700';font-variation-settings:'wght' 700;text-align:center;text-anchor:middle;fill:#ffffff;stroke-width:0.263478"
       inkscape:label="astrokkidd1"
       transform="scale(0.99582006,1.0041975)"
       aria-label="astrokkIdd"><path
         style="fill:#d84e00"
         d="m 6.7349474,118.5245 v -0.29088 q -0.019683,0.0437 -0.1006034,0.12685 -0.078733,0.0831 -0.2099549,0.15091 -0.1312218,0.0656 -0.3061842,0.0656 -0.2624436,0 -0.4592763,-0.12685 -0.1968327,-0.12904 -0.3061843,-0.34336 -0.1093515,-0.21652 -0.1093515,-0.47896 0,-0.26245 0.1093515,-0.47678 0.1093516,-0.21651 0.3061843,-0.34555 0.1968327,-0.12903 0.4592763,-0.12903 0.1684013,0 0.295249,0.0547 0.1268478,0.0525 0.2055809,0.12685 0.078733,0.0722 0.1093515,0.13341 v -0.26244 h 0.660483 v 1.79555 z m -0.8398196,-0.89668 q 0,0.12247 0.056863,0.22089 0.056863,0.0962 0.1509051,0.1509 0.096229,0.0547 0.2121419,0.0547 0.1202866,0 0.2121419,-0.0547 0.091855,-0.0547 0.144344,-0.1509 0.054676,-0.0984 0.054676,-0.22089 0,-0.12248 -0.054676,-0.21871 -0.052489,-0.0984 -0.144344,-0.15309 -0.091855,-0.0569 -0.2121419,-0.0569 -0.1159126,0 -0.2121419,0.0569 -0.094042,0.0547 -0.1509051,0.15309 -0.056863,0.0962 -0.056863,0.21871 z"
         id="path16" /><path
         d="m 8.6157968,116.67646 q 0.1771495,0 0.3236805,0.0306 0.146531,0.0284 0.2449473,0.0656 0.1006034,0.0372 0.1290348,0.0612 l -0.216516,0.39148 q -0.041554,-0.0306 -0.1552791,-0.0787 -0.1115385,-0.0481 -0.2493214,-0.0481 -0.1049775,0 -0.1771495,0.0328 -0.072172,0.0306 -0.072172,0.0984 0,0.0678 0.078733,0.10935 0.08092,0.0394 0.2318252,0.07 0.1312218,0.0263 0.2668177,0.0831 0.1355959,0.0569 0.2252641,0.1684 0.091855,0.10935 0.091855,0.29306 0,0.18809 -0.08092,0.31056 -0.08092,0.12248 -0.2143289,0.19027 -0.1334088,0.0678 -0.288688,0.094 -0.1552791,0.0284 -0.3018101,0.0284 -0.2055809,0 -0.358673,-0.0372 -0.150905,-0.0372 -0.2449473,-0.0853 -0.094042,-0.0481 -0.1312218,-0.0765 l 0.2143289,-0.43741 q 0.056863,0.0481 0.1858976,0.10935 0.1290347,0.059 0.2733787,0.059 0.1399699,0 0.216516,-0.0416 0.076546,-0.0416 0.076546,-0.10935 0,-0.0547 -0.03718,-0.0875 -0.03718,-0.0328 -0.1049774,-0.0569 -0.067798,-0.0241 -0.1640273,-0.0437 -0.087481,-0.0175 -0.1858975,-0.0547 -0.098416,-0.0372 -0.1858976,-0.10061 -0.087481,-0.0656 -0.1421569,-0.16402 -0.054676,-0.0984 -0.054676,-0.23839 0,-0.17934 0.1159126,-0.29744 0.1159126,-0.1181 0.2996231,-0.17715 0.1837106,-0.0612 0.3914784,-0.0612 z m 0.8923096,0.0525 h 0.3061842 v -0.73703 h 0.6582964 v 0.73703 H 10.875 v 0.54675 h -0.402413 v 0.50083 q 0,0.11154 0.0328,0.18153 0.03281,0.0678 0.120287,0.0678 0.05905,0 0.100603,-0.0262 0.04155,-0.0262 0.0503,-0.035 l 0.227451,0.4724 q -0.01531,0.0131 -0.09623,0.0481 -0.07873,0.035 -0.201207,0.0634 -0.122474,0.0284 -0.273379,0.0284 -0.269005,0 -0.4439669,-0.15091 -0.1749625,-0.15309 -0.1749625,-0.47021 V 117.2757 H 9.5081064 Z m 2.3510596,1.79555 h -0.664857 v -1.79555 h 0.664857 v 0.27775 h -0.01093 q 0.0175,-0.0503 0.08529,-0.12685 0.0678,-0.0787 0.190272,-0.13997 0.122474,-0.0634 0.299623,-0.0634 0.124661,0 0.229638,0.0394 0.104978,0.0372 0.153092,0.0722 l -0.258069,0.54019 q -0.03062,-0.0372 -0.109352,-0.0765 -0.07655,-0.0416 -0.192458,-0.0416 -0.133409,0 -0.22089,0.0678 -0.08529,0.0678 -0.126848,0.16403 -0.03937,0.0962 -0.03937,0.18152 z m 1.992785,0.0525 q -0.295249,0 -0.524887,-0.12029 -0.227451,-0.12247 -0.358673,-0.33462 -0.129035,-0.21432 -0.129035,-0.48989 0,-0.27557 0.129035,-0.4899 0.131222,-0.21651 0.358673,-0.34117 0.229638,-0.12466 0.524887,-0.12466 0.295249,0 0.520513,0.12466 0.225265,0.12466 0.352112,0.34117 0.126848,0.21433 0.126848,0.4899 0,0.27557 -0.126848,0.48989 -0.126847,0.21215 -0.352112,0.33462 -0.225264,0.12029 -0.520513,0.12029 z m 0,-0.54676 q 0.113726,0 0.196833,-0.0503 0.08311,-0.0503 0.129035,-0.14216 0.04593,-0.0919 0.04593,-0.20777 0,-0.1181 -0.04593,-0.20995 -0.04593,-0.0919 -0.129035,-0.14435 -0.08311,-0.0525 -0.196833,-0.0525 -0.113725,0 -0.199019,0.0525 -0.08311,0.0525 -0.131222,0.14435 -0.04593,0.0918 -0.04593,0.20995 0,0.11592 0.04593,0.20777 0.04811,0.0919 0.131222,0.14216 0.08529,0.0503 0.199019,0.0503 z m 2.569762,-1.30128 h 0.752339 l -0.846381,0.85731 0.933862,0.93824 h -0.769835 l -0.693288,-0.72172 v 0.72172 h -0.664857 v -3.00936 h 0.664857 v 1.8393 z m 2.24171,0 h 0.752338 l -0.84638,0.85731 0.933862,0.93824 h -0.769835 l -0.693288,-0.72172 v 0.72172 h -0.664858 v -3.00936 h 0.664858 v 1.8393 z"
         id="path17" /><path
         style="fill:#000000"
         d="m 19.702265,115.63762 h 0.653922 v 2.88688 h -0.653922 z"
         id="path18" /><path
         d="m 21.633414,118.57699 q -0.260256,0 -0.452715,-0.12685 -0.192459,-0.12904 -0.299623,-0.34336 -0.104978,-0.21652 -0.104978,-0.47896 0,-0.26245 0.104978,-0.47678 0.107164,-0.21651 0.299623,-0.34555 0.192459,-0.12903 0.452715,-0.12903 0.172776,0 0.306184,0.0547 0.133409,0.0525 0.216516,0.12685 0.08311,0.0722 0.100604,0.13341 v -1.47625 h 0.664857 v 3.00936 h -0.658296 v -0.29088 q -0.04155,0.0809 -0.135596,0.16184 -0.09404,0.0787 -0.22089,0.12904 -0.126848,0.0525 -0.273379,0.0525 z m 0.203394,-0.5227 q 0.120287,0 0.214329,-0.0547 0.09623,-0.0547 0.150905,-0.1509 0.05468,-0.0984 0.05468,-0.22089 0,-0.12248 -0.05468,-0.21871 -0.05468,-0.0984 -0.150905,-0.15309 -0.09404,-0.0569 -0.214329,-0.0569 -0.115913,0 -0.209955,0.0569 -0.09185,0.0547 -0.146531,0.15309 -0.05249,0.0962 -0.05249,0.21871 0,0.12247 0.05249,0.22089 0.05468,0.0962 0.146531,0.1509 0.09404,0.0547 0.209955,0.0547 z m 2.239519,0.5227 q -0.260256,0 -0.452715,-0.12685 -0.192459,-0.12904 -0.299623,-0.34336 -0.104977,-0.21652 -0.104977,-0.47896 0,-0.26245 0.104977,-0.47678 0.107164,-0.21651 0.299623,-0.34555 0.192459,-0.12903 0.452715,-0.12903 0.172776,0 0.306185,0.0547 0.133408,0.0525 0.216516,0.12685 0.08311,0.0722 0.100603,0.13341 v -1.47625 h 0.664857 v 3.00936 h -0.658296 v -0.29088 q -0.04155,0.0809 -0.135596,0.16184 -0.09404,0.0787 -0.22089,0.12904 -0.126848,0.0525 -0.273379,0.0525 z m 0.203394,-0.5227 q 0.120287,0 0.214329,-0.0547 0.09623,-0.0547 0.150905,-0.1509 0.05468,-0.0984 0.05468,-0.22089 0,-0.12248 -0.05468,-0.21871 -0.05468,-0.0984 -0.150905,-0.15309 -0.09404,-0.0569 -0.214329,-0.0569 -0.115912,0 -0.209955,0.0569 -0.09186,0.0547 -0.146531,0.15309 -0.05249,0.0962 -0.05249,0.21871 0,0.12247 0.05249,0.22089 0.05468,0.0962 0.146531,0.1509 0.09404,0.0547 0.209955,0.0547 z"
         id="path19" /></g><g
       id="text7"
       style="font-size:4.37407px;font-family:'League Spartan';-inkscape-font-specification:'League Spartan, @wght=700';font-variation-settings:'wght' 700;text-align:center;text-anchor:middle;fill:#ffffff;stroke-width:0.263477"
       inkscape:label="astrokkidd2"
       transform="scale(0.99581994,1.0041976)"
       aria-label="astrokkIdd"><path
         style="fill:#d800d6"
         d="m 6.734961,120.51611 v -0.29087 q -0.019683,0.0437 -0.1006036,0.12685 -0.078733,0.0831 -0.2099554,0.1509 -0.1312221,0.0656 -0.3061849,0.0656 -0.2624442,0 -0.4592774,-0.12685 -0.1968331,-0.12903 -0.3061849,-0.34336 -0.1093517,-0.21652 -0.1093517,-0.47896 0,-0.26245 0.1093517,-0.47677 0.1093518,-0.21652 0.3061849,-0.34556 0.1968332,-0.12903 0.4592774,-0.12903 0.1684017,0 0.2952497,0.0547 0.1268481,0.0525 0.2055813,0.12685 0.078733,0.0722 0.1093518,0.13341 v -0.26244 h 0.6604846 v 1.79555 z m -0.8398215,-0.89668 q 0,0.12247 0.056863,0.22089 0.056863,0.0962 0.1509054,0.1509 0.09623,0.0547 0.2121424,0.0547 0.120287,0 0.2121425,-0.0547 0.091855,-0.0547 0.1443443,-0.1509 0.054676,-0.0984 0.054676,-0.22089 0,-0.12248 -0.054676,-0.2187 -0.052489,-0.0984 -0.1443443,-0.1531 -0.091855,-0.0569 -0.2121425,-0.0569 -0.1159128,0 -0.2121424,0.0569 -0.094042,0.0547 -0.1509054,0.1531 -0.056863,0.0962 -0.056863,0.2187 z"
         id="path20" /><path
         d="m 8.6158146,118.66807 q 0.1771498,0 0.3236812,0.0306 0.1465313,0.0284 0.2449479,0.0656 0.1006036,0.0372 0.1290351,0.0612 l -0.2165165,0.39147 q -0.041554,-0.0306 -0.1552795,-0.0787 -0.1115388,-0.0481 -0.249322,-0.0481 -0.1049777,0 -0.1771498,0.0328 -0.072172,0.0306 -0.072172,0.0984 0,0.0678 0.078733,0.10935 0.08092,0.0394 0.2318257,0.07 0.1312221,0.0262 0.2668183,0.0831 0.1355962,0.0569 0.2252646,0.1684 0.091856,0.10936 0.091856,0.29307 0,0.18808 -0.08092,0.31056 -0.08092,0.12247 -0.2143295,0.19027 -0.1334091,0.0678 -0.2886886,0.094 -0.1552795,0.0284 -0.3018108,0.0284 -0.2055813,0 -0.3586738,-0.0372 -0.1509054,-0.0372 -0.2449479,-0.0853 -0.094042,-0.0481 -0.1312221,-0.0765 l 0.2143294,-0.43741 q 0.056863,0.0481 0.185898,0.10936 0.1290351,0.059 0.2733794,0.059 0.1399702,0 0.2165164,-0.0416 0.076546,-0.0416 0.076546,-0.10935 0,-0.0547 -0.03718,-0.0875 -0.03718,-0.0328 -0.1049777,-0.0569 -0.067798,-0.0241 -0.1640276,-0.0437 -0.087481,-0.0175 -0.185898,-0.0547 -0.098417,-0.0372 -0.185898,-0.1006 -0.087481,-0.0656 -0.1421573,-0.16403 -0.054676,-0.0984 -0.054676,-0.23839 0,-0.17933 0.1159129,-0.29743 0.1159129,-0.1181 0.2996238,-0.17715 0.183711,-0.0612 0.3914793,-0.0612 z m 0.8923119,0.0525 h 0.306185 v -0.73703 h 0.6582975 v 0.73703 h 0.402414 v 0.54676 h -0.402414 v 0.50083 q 0,0.11154 0.03281,0.18152 0.03281,0.0678 0.120286,0.0678 0.05905,0 0.100604,-0.0263 0.04155,-0.0262 0.0503,-0.035 l 0.227452,0.4724 q -0.01531,0.0131 -0.09623,0.0481 -0.07873,0.035 -0.201207,0.0634 -0.122474,0.0284 -0.27338,0.0284 -0.269005,0 -0.4439677,-0.1509 -0.1749628,-0.1531 -0.1749628,-0.47022 v -0.68016 h -0.306185 z m 2.3510655,1.79555 h -0.664859 v -1.79555 h 0.664859 v 0.27775 h -0.01094 q 0.0175,-0.0503 0.0853,-0.12685 0.0678,-0.0787 0.190272,-0.13997 0.122474,-0.0634 0.299624,-0.0634 0.124661,0 0.229638,0.0394 0.104978,0.0372 0.153093,0.0722 l -0.25807,0.5402 q -0.03062,-0.0372 -0.109352,-0.0765 -0.07655,-0.0416 -0.192459,-0.0416 -0.133409,0 -0.220891,0.0678 -0.08529,0.0678 -0.126848,0.16403 -0.03937,0.0962 -0.03937,0.18152 z m 1.992789,0.0525 q -0.29525,0 -0.524888,-0.12028 -0.227452,-0.12248 -0.358674,-0.33462 -0.129035,-0.21433 -0.129035,-0.4899 0,-0.27556 0.129035,-0.48989 0.131222,-0.21652 0.358674,-0.34118 0.229638,-0.12466 0.524888,-0.12466 0.29525,0 0.520514,0.12466 0.225265,0.12466 0.352113,0.34118 0.126848,0.21433 0.126848,0.48989 0,0.27557 -0.126848,0.4899 -0.126848,0.21214 -0.352113,0.33462 -0.225264,0.12028 -0.520514,0.12028 z m 0,-0.54676 q 0.113726,0 0.196833,-0.0503 0.08311,-0.0503 0.129035,-0.14216 0.04593,-0.0918 0.04593,-0.20776 0,-0.1181 -0.04593,-0.20996 -0.04593,-0.0918 -0.129035,-0.14434 -0.08311,-0.0525 -0.196833,-0.0525 -0.113726,0 -0.19902,0.0525 -0.08311,0.0525 -0.131222,0.14434 -0.04593,0.0919 -0.04593,0.20996 0,0.11591 0.04593,0.20776 0.04811,0.0919 0.131222,0.14216 0.08529,0.0503 0.19902,0.0503 z m 2.569769,-1.30128 h 0.75234 l -0.846383,0.85732 0.933864,0.93823 h -0.769836 l -0.69329,-0.72172 v 0.72172 h -0.664859 v -3.00936 h 0.664859 v 1.8393 z m 2.241714,0 h 0.75234 l -0.846382,0.85732 0.933864,0.93823 h -0.769837 l -0.69329,-0.72172 v 0.72172 H 17.3753 v -3.00936 h 0.664859 v 1.8393 z m 1.038844,-1.09133 h 0.653924 v 2.88688 h -0.653924 z m 1.931153,2.93937 q -0.260257,0 -0.452716,-0.12685 -0.19246,-0.12903 -0.299624,-0.34336 -0.104978,-0.21652 -0.104978,-0.47896 0,-0.26245 0.104978,-0.47677 0.107164,-0.21652 0.299624,-0.34556 0.192459,-0.12903 0.452716,-0.12903 0.172776,0 0.306185,0.0547 0.133409,0.0525 0.216516,0.12685 0.08311,0.0722 0.100604,0.13341 v -1.47625 h 0.664858 v 3.00936 h -0.658297 v -0.29087 q -0.04155,0.0809 -0.135596,0.16184 -0.09404,0.0787 -0.220891,0.12903 -0.126848,0.0525 -0.273379,0.0525 z m 0.203394,-0.5227 q 0.120287,0 0.214329,-0.0547 0.09623,-0.0547 0.150906,-0.1509 0.05468,-0.0984 0.05468,-0.22089 0,-0.12248 -0.05468,-0.2187 -0.05468,-0.0984 -0.150906,-0.1531 -0.09404,-0.0569 -0.214329,-0.0569 -0.115913,0 -0.209955,0.0569 -0.09186,0.0547 -0.146532,0.1531 -0.05249,0.0962 -0.05249,0.2187 0,0.12247 0.05249,0.22089 0.05468,0.0962 0.146532,0.1509 0.09404,0.0547 0.209955,0.0547 z m 2.239526,0.5227 q -0.260257,0 -0.452716,-0.12685 -0.192459,-0.12903 -0.299624,-0.34336 -0.104977,-0.21652 -0.104977,-0.47896 0,-0.26245 0.104977,-0.47677 0.107165,-0.21652 0.299624,-0.34556 0.192459,-0.12903 0.452716,-0.12903 0.172776,0 0.306185,0.0547 0.13341,0.0525 0.216517,0.12685 0.08311,0.0722 0.100603,0.13341 v -1.47625 h 0.664859 v 3.00936 h -0.658297 v -0.29087 q -0.04155,0.0809 -0.135597,0.16184 -0.09404,0.0787 -0.22089,0.12903 -0.126848,0.0525 -0.27338,0.0525 z m 0.203395,-0.5227 q 0.120287,0 0.214329,-0.0547 0.09623,-0.0547 0.150906,-0.1509 0.05467,-0.0984 0.05467,-0.22089 0,-0.12248 -0.05467,-0.2187 -0.05468,-0.0984 -0.150906,-0.1531 -0.09404,-0.0569 -0.214329,-0.0569 -0.115913,0 -0.209956,0.0569 -0.09185,0.0547 -0.146531,0.1531 -0.05249,0.0962 -0.05249,0.2187 0,0.12247 0.05249,0.22089 0.05468,0.0962 0.146531,0.1509 0.09404,0.0547 0.209956,0.0547 z"
         id="path21" /></g><g
       id="text8"
       style="font-size:4.37407px;font-family:'League Spartan';-inkscape-font-specification:'League Spartan, @wght=700';font-variation-settings:'wght' 700;text-align:center;text-anchor:middle;fill:#ffffff;stroke-width:0.263477"
       inkscape:label="astrokkidd3"
       transform="scale(0.99581994,1.0041976)"
       aria-label="astrokkIdd"><path
         style="fill:#8dd800"
         d="m 6.734961,122.50775 v -0.29087 q -0.019683,0.0437 -0.1006036,0.12684 -0.078733,0.0831 -0.2099554,0.15091 -0.1312221,0.0656 -0.3061849,0.0656 -0.2624442,0 -0.4592774,-0.12685 -0.1968331,-0.12903 -0.3061849,-0.34336 -0.1093517,-0.21652 -0.1093517,-0.47896 0,-0.26245 0.1093517,-0.47678 0.1093518,-0.21651 0.3061849,-0.34555 0.1968332,-0.12903 0.4592774,-0.12903 0.1684017,0 0.2952497,0.0547 0.1268481,0.0525 0.2055813,0.12685 0.078733,0.0722 0.1093518,0.13341 v -0.26244 h 0.6604846 v 1.79555 z m -0.8398215,-0.89668 q 0,0.12247 0.056863,0.22089 0.056863,0.0962 0.1509054,0.1509 0.09623,0.0547 0.2121424,0.0547 0.120287,0 0.2121425,-0.0547 0.091855,-0.0547 0.1443443,-0.1509 0.054676,-0.0984 0.054676,-0.22089 0,-0.12248 -0.054676,-0.21871 -0.052489,-0.0984 -0.1443443,-0.15309 -0.091855,-0.0569 -0.2121425,-0.0569 -0.1159128,0 -0.2121424,0.0569 -0.094042,0.0547 -0.1509054,0.15309 -0.056863,0.0962 -0.056863,0.21871 z"
         id="path22" /><path
         d="m 8.6158146,120.65971 q 0.1771498,0 0.3236812,0.0306 0.1465313,0.0284 0.2449479,0.0656 0.1006036,0.0372 0.1290351,0.0612 l -0.2165165,0.39148 q -0.041554,-0.0306 -0.1552795,-0.0787 -0.1115388,-0.0481 -0.249322,-0.0481 -0.1049777,0 -0.1771498,0.0328 -0.072172,0.0306 -0.072172,0.0984 0,0.0678 0.078733,0.10935 0.08092,0.0394 0.2318257,0.07 0.1312221,0.0263 0.2668183,0.0831 0.1355962,0.0569 0.2252646,0.1684 0.091856,0.10935 0.091856,0.29307 0,0.18808 -0.08092,0.31055 -0.08092,0.12248 -0.2143295,0.19028 -0.1334091,0.0678 -0.2886886,0.094 -0.1552795,0.0284 -0.3018108,0.0284 -0.2055813,0 -0.3586738,-0.0372 -0.1509054,-0.0372 -0.2449479,-0.0853 -0.094042,-0.0481 -0.1312221,-0.0765 l 0.2143294,-0.43741 q 0.056863,0.0481 0.185898,0.10935 0.1290351,0.059 0.2733794,0.059 0.1399702,0 0.2165164,-0.0416 0.076546,-0.0415 0.076546,-0.10935 0,-0.0547 -0.03718,-0.0875 -0.03718,-0.0328 -0.1049777,-0.0569 -0.067798,-0.0241 -0.1640276,-0.0438 -0.087481,-0.0175 -0.185898,-0.0547 -0.098417,-0.0372 -0.185898,-0.10061 -0.087481,-0.0656 -0.1421573,-0.16402 -0.054676,-0.0984 -0.054676,-0.23839 0,-0.17934 0.1159129,-0.29744 0.1159129,-0.1181 0.2996238,-0.17715 0.183711,-0.0612 0.3914793,-0.0612 z m 0.8923119,0.0525 h 0.306185 v -0.73704 h 0.6582975 v 0.73704 h 0.402414 v 0.54675 h -0.402414 v 0.50084 q 0,0.11153 0.03281,0.18152 0.03281,0.0678 0.120286,0.0678 0.05905,0 0.100604,-0.0263 0.04155,-0.0262 0.0503,-0.035 l 0.227452,0.4724 q -0.01531,0.0131 -0.09623,0.0481 -0.07873,0.035 -0.201207,0.0634 -0.122474,0.0284 -0.27338,0.0284 -0.269005,0 -0.4439677,-0.15091 -0.1749628,-0.15309 -0.1749628,-0.47021 v -0.68017 h -0.306185 z m 2.3510655,1.79555 h -0.664859 v -1.79555 h 0.664859 v 0.27775 h -0.01094 q 0.0175,-0.0503 0.0853,-0.12685 0.0678,-0.0787 0.190272,-0.13997 0.122474,-0.0634 0.299624,-0.0634 0.124661,0 0.229638,0.0394 0.104978,0.0372 0.153093,0.0722 l -0.25807,0.54019 q -0.03062,-0.0372 -0.109352,-0.0765 -0.07655,-0.0416 -0.192459,-0.0416 -0.133409,0 -0.220891,0.0678 -0.08529,0.0678 -0.126848,0.16403 -0.03937,0.0962 -0.03937,0.18152 z m 1.992789,0.0525 q -0.29525,0 -0.524888,-0.12029 -0.227452,-0.12247 -0.358674,-0.33461 -0.129035,-0.21433 -0.129035,-0.4899 0,-0.27557 0.129035,-0.48989 0.131222,-0.21652 0.358674,-0.34118 0.229638,-0.12466 0.524888,-0.12466 0.29525,0 0.520514,0.12466 0.225265,0.12466 0.352113,0.34118 0.126848,0.21432 0.126848,0.48989 0,0.27557 -0.126848,0.4899 -0.126848,0.21214 -0.352113,0.33461 -0.225264,0.12029 -0.520514,0.12029 z m 0,-0.54676 q 0.113726,0 0.196833,-0.0503 0.08311,-0.0503 0.129035,-0.14216 0.04593,-0.0919 0.04593,-0.20777 0,-0.1181 -0.04593,-0.20995 -0.04593,-0.0919 -0.129035,-0.14435 -0.08311,-0.0525 -0.196833,-0.0525 -0.113726,0 -0.19902,0.0525 -0.08311,0.0525 -0.131222,0.14435 -0.04593,0.0918 -0.04593,0.20995 0,0.11592 0.04593,0.20777 0.04811,0.0919 0.131222,0.14216 0.08529,0.0503 0.19902,0.0503 z m 2.569769,-1.30128 h 0.75234 l -0.846383,0.85731 0.933864,0.93824 h -0.769836 l -0.69329,-0.72172 v 0.72172 h -0.664859 v -3.00936 h 0.664859 v 1.8393 z m 2.241714,0 h 0.75234 l -0.846382,0.85731 0.933864,0.93824 h -0.769837 l -0.69329,-0.72172 v 0.72172 H 17.3753 v -3.00936 h 0.664859 v 1.8393 z m 1.038844,-1.09133 h 0.653924 v 2.88688 h -0.653924 z m 1.931153,2.93937 q -0.260257,0 -0.452716,-0.12685 -0.19246,-0.12903 -0.299624,-0.34336 -0.104978,-0.21652 -0.104978,-0.47896 0,-0.26245 0.104978,-0.47678 0.107164,-0.21651 0.299624,-0.34555 0.192459,-0.12903 0.452716,-0.12903 0.172776,0 0.306185,0.0547 0.133409,0.0525 0.216516,0.12685 0.08311,0.0722 0.100604,0.13341 v -1.47625 h 0.664858 v 3.00936 h -0.658297 v -0.29087 q -0.04155,0.0809 -0.135596,0.16184 -0.09404,0.0787 -0.220891,0.12903 -0.126848,0.0525 -0.273379,0.0525 z m 0.203394,-0.5227 q 0.120287,0 0.214329,-0.0547 0.09623,-0.0547 0.150906,-0.1509 0.05468,-0.0984 0.05468,-0.22089 0,-0.12248 -0.05468,-0.21871 -0.05468,-0.0984 -0.150906,-0.15309 -0.09404,-0.0569 -0.214329,-0.0569 -0.115913,0 -0.209955,0.0569 -0.09186,0.0547 -0.146532,0.15309 -0.05249,0.0962 -0.05249,0.21871 0,0.12247 0.05249,0.22089 0.05468,0.0962 0.146532,0.1509 0.09404,0.0547 0.209955,0.0547 z m 2.239526,0.5227 q -0.260257,0 -0.452716,-0.12685 -0.192459,-0.12903 -0.299624,-0.34336 -0.104977,-0.21652 -0.104977,-0.47896 0,-0.26245 0.104977,-0.47678 0.107165,-0.21651 0.299624,-0.34555 0.192459,-0.12903 0.452716,-0.12903 0.172776,0 0.306185,0.0547 0.13341,0.0525 0.216517,0.12685 0.08311,0.0722 0.100603,0.13341 v -1.47625 h 0.664859 v 3.00936 h -0.658297 v -0.29087 q -0.04155,0.0809 -0.135597,0.16184 -0.09404,0.0787 -0.22089,0.12903 -0.126848,0.0525 -0.27338,0.0525 z m 0.203395,-0.5227 q 0.120287,0 0.214329,-0.0547 0.09623,-0.0547 0.150906,-0.1509 0.05467,-0.0984 0.05467,-0.22089 0,-0.12248 -0.05467,-0.21871 -0.05468,-0.0984 -0.150906,-0.15309 -0.09404,-0.0569 -0.214329,-0.0569 -0.115913,0 -0.209956,0.0569 -0.09185,0.0547 -0.146531,0.15309 -0.05249,0.0962 -0.05249,0.21871 0,0.12247 0.05249,0.22089 0.05468,0.0962 0.146531,0.1509 0.09404,0.0547 0.209956,0.0547 z"
         id="path23" /></g><circle
       style="font-variation-settings:'wght' 700;fill:#ffffff;stroke-width:0.248319"
       id="path9"
       cx="19.947823"
       cy="117.475"
       r="0.375"
       inkscape:label="idot" /></g><g
     inkscape:groupmode="layer"
     id="layer2"
     inkscape:label="components"
     style="display:none"><circle
       style="fill:#ff0000;fill-opacity:1;stroke-width:0.264583"
       id="path45"
       cx="15.24"
       cy="58"
       r="2"
       inkscape:label="pitch" /><circle
       style="fill:#ff00ff;fill-opacity:1;stroke-width:0.264583"
       id="circle45"
       inkscape:label="light"
       cx="15.24"
       cy="40"
       r="2" /><circle
       style="fill:#00ff00;fill-opacity:1;stroke-width:0.264583"
       id="circle46"
       cx="15.339"
       cy="81.982002"
       r="2"
       inkscape:label="1voct" /><circle
       style="fill:#0000ff;fill-opacity:1;stroke-width:0.264583"
       id="circle47"
       cx="15.339163"
       cy="101.707"
       r="2"
       inkscape:label="sine" /></g></svg>
